<svg width="26" height="26" viewBox="0 0 26 26" fill="none" xmlns="http://www.w3.org/2000/svg">
<path d="M19.0103 17.8553L20.8751 21.1031C21.1258 21.5398 20.9751 22.0971 20.5384 22.3479C18.1772 23.7036 15.1785 23.1168 13.5025 20.9711L12.2903 19.4191C10.9487 17.7016 9.85809 15.802 9.05109 13.7775L8.32191 11.9482C7.31376 9.4191 8.31874 6.53353 10.6799 5.17783C11.1166 4.92708 11.6739 5.07784 11.9247 5.51457L13.7894 8.76231C14.0644 9.24126 13.8991 9.85246 13.4201 10.1275L12.1678 10.8465C11.9687 10.9608 11.8652 11.1896 11.9106 11.4146C12.4364 14.0154 13.7915 16.3756 15.7726 18.1408C15.944 18.2935 16.1938 18.3194 16.3928 18.2051L17.6452 17.486C18.1241 17.2111 18.7353 17.3764 19.0103 17.8553Z" stroke="white" stroke-width="2"/>
</svg>
