<svg width="29" height="29" viewBox="0 0 29 29" fill="none" xmlns="http://www.w3.org/2000/svg">
<path d="M14.5 0C22.508 0 28.9999 6.49199 29 14.5C29 22.5081 22.5081 29 14.5 29C6.49187 29 0 22.5081 0 14.5C0.000137747 6.49199 6.49196 0 14.5 0Z" fill="#383D38"/>
<path d="M14.7847 21.9417C14.7847 21.9417 15.0734 21.8925 15.2213 21.6489C15.3567 21.4256 15.352 21.0043 15.352 21.0043C15.352 21.0043 15.334 19.0371 15.9296 18.7467C16.5165 18.461 17.2701 20.6491 18.0699 21.4904C18.674 22.1266 19.1326 21.9873 19.1326 21.9873L21.2697 21.9417C21.2697 21.9417 22.3872 21.8361 21.8574 20.4882C21.8136 20.3778 21.5483 19.4908 20.2689 17.6688C18.9283 15.7617 19.1083 16.0701 20.722 12.7706C21.7048 10.7614 22.0977 9.53476 21.9748 9.01026C21.8582 8.50855 21.1351 8.64178 21.1351 8.64178L18.7296 8.66458C18.7296 8.66458 18.5511 8.62738 18.4189 8.7486C18.2898 8.86743 18.206 9.14468 18.206 9.14468C18.206 9.14468 17.8257 10.699 17.3178 12.0217C16.2465 14.8111 15.8184 14.9587 15.6431 14.7858C15.2354 14.3814 15.3372 13.1631 15.3372 12.2977C15.3372 9.59358 15.6048 8.46654 14.8167 8.17488C14.5554 8.07766 14.3629 8.01405 13.6938 8.00325C12.8353 7.99004 12.1091 8.00805 11.6975 8.31651C11.4236 8.52175 11.2123 8.98025 11.3414 9.00665C11.5003 9.03906 11.8602 9.15549 12.0512 9.55397C12.2977 10.0689 12.2891 11.2235 12.2891 11.2235C12.2891 11.2235 12.4307 14.4066 11.9581 14.8015C11.6341 15.0727 11.1896 14.5194 10.2341 11.9881C9.74497 10.6918 9.37561 9.25871 9.37561 9.25871C9.37561 9.25871 9.30439 8.99105 9.17684 8.84702C9.02267 8.67299 8.80747 8.61897 8.80747 8.61897L6.52161 8.64178C6.52161 8.64178 6.17806 8.65618 6.05207 8.88543C5.94016 9.08827 6.04346 9.50956 6.04346 9.50956C6.04346 9.50956 7.83318 15.9321 9.86001 19.1692C11.7186 22.1362 13.8284 21.9417 13.8284 21.9417H14.7847Z" fill="#FFFAFA"/>
</svg>
