<svg width="30" height="30" viewBox="0 0 30 30" fill="none" xmlns="http://www.w3.org/2000/svg">
<path d="M15.0342 0H14.9658C6.70044 0 0 6.70241 0 14.9702V15.0386C0 23.3064 6.70044 30.0088 14.9658 30.0088H15.0342C23.2996 30.0088 30 23.3064 30 15.0386V14.9702C30 6.70241 23.2996 0 15.0342 0Z" fill="#383D38"/>
<path d="M17.9232 19.3934C14.0837 19.3934 10.96 16.2678 10.959 12.4272C10.96 11.4536 11.7525 10.6619 12.7237 10.6619C12.8235 10.6619 12.9223 10.6703 13.0169 10.6872C13.225 10.7219 13.4226 10.7923 13.6045 10.8985C13.6307 10.9143 13.6486 10.9395 13.6528 10.9689L14.0585 13.5269C14.0638 13.5563 14.0543 13.5868 14.0343 13.6089C13.8105 13.857 13.5246 14.0357 13.2061 14.1251L13.0527 14.1682L13.1105 14.3164C13.6339 15.6496 14.6997 16.7146 16.0334 17.2403L16.1816 17.2991L16.2247 17.1456C16.3141 16.8271 16.4927 16.5411 16.7408 16.3172C16.7587 16.3003 16.7828 16.2919 16.807 16.2919C16.8123 16.2919 16.8175 16.2919 16.8238 16.293L19.381 16.6988C19.4115 16.7041 19.4367 16.7209 19.4525 16.7472C19.5576 16.9291 19.628 17.1278 19.6638 17.3359C19.6806 17.4285 19.6879 17.5262 19.6879 17.6282C19.6879 18.6007 18.8965 19.3924 17.9232 19.3934Z" fill="#FDFDFD"/>
<path d="M24.7319 14.1619C24.5248 11.8216 23.4528 9.6505 21.7133 8.04929C19.9633 6.43861 17.693 5.55127 15.3187 5.55127C10.1076 5.55127 5.86771 9.79243 5.86771 15.0051C5.86771 16.7545 6.35013 18.4588 7.26349 19.9433L5.22656 24.4536L11.7483 23.7586C12.8824 24.2233 14.0827 24.4588 15.3177 24.4588C15.6424 24.4588 15.9756 24.442 16.3098 24.4073C16.6041 24.3758 16.9016 24.3295 17.1938 24.2706C21.5577 23.3886 24.7434 19.5143 24.7687 15.0555V15.0051C24.7687 14.7212 24.7561 14.4373 24.7308 14.1629L24.7319 14.1619ZM11.9995 21.7789L8.39127 22.1637L9.46859 19.7761L9.25312 19.487C9.23736 19.466 9.2216 19.4449 9.20373 19.4207C8.2683 18.1286 7.7743 16.6021 7.7743 15.0061C7.7743 10.8448 11.1587 7.45948 15.3187 7.45948C19.216 7.45948 22.5194 10.5011 22.8379 14.3837C22.8547 14.5919 22.8642 14.8011 22.8642 15.0072C22.8642 15.066 22.8631 15.1239 22.8621 15.1859C22.7822 18.6669 20.3511 21.6233 16.9499 22.3761C16.6903 22.4339 16.4244 22.4781 16.1595 22.5065C15.8842 22.538 15.6014 22.5538 15.3208 22.5538C14.3213 22.5538 13.3501 22.3603 12.4325 21.9776C12.3306 21.9366 12.2307 21.8925 12.1372 21.8473L12.0006 21.781L11.9995 21.7789Z" fill="#FDFDFD"/>
</svg>
