<svg width="38" height="34" viewBox="0 0 38 34" fill="none" xmlns="http://www.w3.org/2000/svg">
<mask id="path-1-inside-1_138_531" fill="white">
<path d="M5.20323 2.3687C7.82744 -0.470207 12.0821 -0.470211 14.7063 2.3687L18.2852 6.24042L22.0856 2.12918C24.7098 -0.709496 28.9645 -0.709652 31.5887 2.12918L35.0449 5.86824C37.6688 8.7071 37.6688 13.31 35.0449 16.1489L19.6309 32.824C19.5124 32.9522 19.3702 33.0393 19.2199 33.0865L19.1013 33.2148C18.7264 33.6204 18.1186 33.6204 17.7437 33.2148L1.96835 16.1489C-0.65586 13.3099 -0.65586 8.70715 1.96835 5.86824L5.20323 2.3687Z"/>
</mask>
<path d="M5.20323 2.3687L3.84564 0.90004L3.84564 0.900042L5.20323 2.3687ZM14.7063 2.3687L16.0639 0.900042L14.7063 2.3687ZM18.2852 6.24042L16.9277 7.70908L18.2852 9.17774L19.6428 7.70908L18.2852 6.24042ZM22.0856 2.12918L20.728 0.660458L20.728 0.660524L22.0856 2.12918ZM31.5887 2.12918L30.2311 3.59784L31.5887 2.12918ZM35.0449 5.86824L36.4026 4.39967L36.4025 4.39958L35.0449 5.86824ZM35.0449 16.1489L36.4025 17.6175L36.4026 17.6174L35.0449 16.1489ZM19.6309 32.824L20.9883 34.2929L20.9885 34.2927L19.6309 32.824ZM19.2199 33.0865L18.6855 31.0916L18.2114 31.2402L17.8623 31.6178L19.2199 33.0865ZM19.1013 33.2148L20.4588 34.6835L19.1013 33.2148ZM17.7437 33.2148L16.3861 34.6835L17.7437 33.2148ZM1.96835 16.1489L3.32594 14.6802L1.96835 16.1489ZM1.96835 5.86824L3.32594 7.3369L1.96835 5.86824ZM5.20323 2.3687L6.56081 3.83736C8.43525 1.80957 11.4743 1.80957 13.3487 3.83736L14.7063 2.3687L16.0639 0.900042C12.6899 -2.74999 7.21962 -2.74998 3.84564 0.90004L5.20323 2.3687ZM14.7063 2.3687L13.3487 3.83736L16.9277 7.70908L18.2852 6.24042L19.6428 4.77176L16.0639 0.900042L14.7063 2.3687ZM18.2852 6.24042L19.6428 7.70908L23.4431 3.59784L22.0856 2.12918L20.728 0.660524L16.9277 4.77176L18.2852 6.24042ZM22.0856 2.12918L23.4431 3.59791C25.3176 1.57019 28.3568 1.57019 30.2311 3.59784L31.5887 2.12918L32.9463 0.660524C29.5723 -2.98949 24.102 -2.98919 20.728 0.660458L22.0856 2.12918ZM31.5887 2.12918L30.2311 3.59784L33.6874 7.3369L35.0449 5.86824L36.4025 4.39958L32.9463 0.660524L31.5887 2.12918ZM35.0449 5.86824L33.6873 7.3368C35.5615 9.3646 35.5615 12.6526 33.6873 14.6803L35.0449 16.1489L36.4026 17.6174C39.7762 13.9675 39.7761 8.0496 36.4026 4.39967L35.0449 5.86824ZM35.0449 16.1489L33.6874 14.6802L18.2733 31.3553L19.6309 32.824L20.9885 34.2927L36.4025 17.6175L35.0449 16.1489ZM19.6309 32.824L18.2735 31.3552C18.393 31.2259 18.5374 31.138 18.6855 31.0916L19.2199 33.0865L19.7543 35.0814C20.2031 34.9407 20.6318 34.6784 20.9883 34.2929L19.6309 32.824ZM19.2199 33.0865L17.8623 31.6178L17.7437 31.7462L19.1013 33.2148L20.4588 34.6835L20.5775 34.5551L19.2199 33.0865ZM19.1013 33.2148L17.7437 31.7462C18.1186 31.3406 18.7264 31.3406 19.1013 31.7462L17.7437 33.2148L16.3861 34.6835C17.5107 35.9002 19.3342 35.9002 20.4588 34.6835L19.1013 33.2148ZM17.7437 33.2148L19.1013 31.7462L3.32594 14.6802L1.96835 16.1489L0.610764 17.6175L16.3861 34.6835L17.7437 33.2148ZM1.96835 16.1489L3.32594 14.6802C1.4515 12.6524 1.4515 9.36469 3.32594 7.3369L1.96835 5.86824L0.610764 4.39958C-2.76322 8.04961 -2.76322 13.9675 0.610764 17.6175L1.96835 16.1489ZM1.96835 5.86824L3.32594 7.3369L6.56081 3.83736L5.20323 2.3687L3.84564 0.900042L0.610764 4.39958L1.96835 5.86824Z" fill="white" mask="url(#path-1-inside-1_138_531)"/>
</svg>
