<svg width="17" height="19" viewBox="0 0 17 19" fill="none" xmlns="http://www.w3.org/2000/svg">
<path d="M8.3125 1.15566C9.09986 1.15566 9.85497 1.46006 10.4117 2.00188C10.9685 2.5437 11.2812 3.27857 11.2812 4.04482V4.62265H5.34375V4.04482C5.34375 3.27857 5.65653 2.5437 6.21328 2.00188C6.77003 1.46006 7.52514 1.15566 8.3125 1.15566ZM12.4688 4.62265V4.04482C12.4688 2.97207 12.0309 1.94325 11.2514 1.1847C10.472 0.42615 9.41481 0 8.3125 0C7.21019 0 6.15304 0.42615 5.37359 1.1847C4.59414 1.94325 4.15625 2.97207 4.15625 4.04482V4.62265H0V16.1793C0 16.7923 0.250223 17.3802 0.695621 17.8136C1.14102 18.2471 1.74511 18.4906 2.375 18.4906H14.25C14.8799 18.4906 15.484 18.2471 15.9294 17.8136C16.3748 17.3802 16.625 16.7923 16.625 16.1793V4.62265H12.4688ZM1.1875 5.77832H15.4375V16.1793C15.4375 16.4858 15.3124 16.7797 15.0897 16.9965C14.867 17.2132 14.5649 17.335 14.25 17.335H2.375C2.06006 17.335 1.75801 17.2132 1.53531 16.9965C1.31261 16.7797 1.1875 16.4858 1.1875 16.1793V5.77832Z" fill="#9F9F9F"/>
</svg>
