<svg width="150" height="18" viewBox="0 0 150 18" fill="none" xmlns="http://www.w3.org/2000/svg">
<path d="M9 18C13.9706 18 18 13.9706 18 9C18 4.02944 13.9706 0 9 0C4.02944 0 0 4.02944 0 9C0 13.9706 4.02944 18 9 18Z" fill="black"/>
<path d="M75 18C79.9706 18 84 13.9706 84 9C84 4.02944 79.9706 0 75 0C70.0294 0 66 4.02944 66 9C66 13.9706 70.0294 18 75 18Z" fill="#141416"/>
<path d="M141 18C145.971 18 150 13.9706 150 9C150 4.02944 145.971 0 141 0C136.029 0 132 4.02944 132 9C132 13.9706 136.029 18 141 18Z" fill="#141416"/>
</svg>
