<svg width="26" height="26" viewBox="0 0 26 26" fill="none" xmlns="http://www.w3.org/2000/svg">
<path fill-rule="evenodd" clip-rule="evenodd" d="M12.788 25.9983L13 26C12.713 26 12.426 25.9906 12.1397 25.972C11.7852 25.9488 11.4319 25.9111 11.0806 25.8592C10.6724 25.7988 10.2673 25.7189 9.86675 25.6199C9.47188 25.5222 9.08186 25.4058 8.69797 25.2713L8.69583 25.2705C8.06366 25.0488 7.44969 24.7782 6.85949 24.4613C6.4406 24.2364 6.03439 23.9886 5.64269 23.7192C5.2022 23.4163 4.78075 23.0866 4.38073 22.732C4.24097 22.6081 4.10387 22.4813 3.96953 22.3516C1.52197 19.9874 0 16.6715 0 13C0 5.82032 5.82032 1.42836e-10 13 1.42836e-10C14.7072 -8.0023e-06 16.3976 0.33624 17.9749 0.989546C19.5521 1.64285 20.9852 2.60042 22.1924 3.80758C23.3995 5.01474 24.3571 6.44785 25.0104 8.02508C25.6637 9.60232 26 11.2928 26 13C26 16.6716 24.4779 19.9877 22.0303 22.3517C21.4145 22.946 20.7419 23.4792 20.0222 23.9421L20.0121 23.9485C19.8489 24.0534 19.6833 24.1545 19.5155 24.2518L19.4977 24.2622C19.2041 24.4319 18.904 24.59 18.598 24.7363C18.4783 24.7933 18.3577 24.8487 18.2364 24.9023C18.1098 24.9579 17.9824 25.0117 17.8542 25.0635C17.7299 25.1134 17.6048 25.1615 17.4791 25.2078C17.352 25.2543 17.2242 25.2989 17.0958 25.3416C16.9696 25.3834 16.8427 25.4233 16.7153 25.4613C16.5802 25.5014 16.4446 25.5394 16.3084 25.5753C16.1758 25.61 16.0427 25.6427 15.9091 25.6733C15.7758 25.7037 15.6421 25.732 15.5079 25.7583C14.961 25.8652 14.4078 25.9367 13.8517 25.9725C13.7135 25.9815 13.5751 25.9882 13.4367 25.9928L13.434 25.9929C13.2188 25.9999 13.0034 26.0017 12.788 25.9983ZM14.3 18.2H11.7C9.62915 18.2 7.81803 19.4186 6.98544 21.2003L6.89129 21.4162L6.97277 21.4764C8.45452 22.5319 10.2248 23.2086 12.1423 23.3651C12.1996 23.3698 12.2569 23.374 12.3144 23.3777L12.1503 23.3657C12.2061 23.3703 12.2621 23.3744 12.3182 23.378L12.3144 23.3777C12.37 23.3814 12.4257 23.3846 12.4814 23.3873L12.3182 23.378C12.3761 23.3818 12.4341 23.385 12.4924 23.3878L12.4814 23.3873C12.5232 23.3893 12.565 23.3911 12.6068 23.3927L13 23.4L13.163 23.3988C13.2229 23.3979 13.2828 23.3964 13.3427 23.3945L13.1782 23.3985C13.2337 23.3976 13.289 23.3962 13.3443 23.3944L13.3427 23.3945C13.3984 23.3927 13.4541 23.3904 13.5096 23.3877L13.3443 23.3944C13.4015 23.3925 13.4588 23.3902 13.516 23.3874L13.5096 23.3877C13.5674 23.3849 13.6251 23.3816 13.6827 23.378L13.516 23.3874C13.5724 23.3846 13.6287 23.3815 13.6848 23.3778L13.6827 23.378C13.739 23.3743 13.7952 23.3702 13.8513 23.3657L13.6848 23.3778C13.7421 23.3741 13.7993 23.3699 13.8564 23.3652L13.8513 23.3657C13.9057 23.3612 13.96 23.3564 14.0142 23.3512L13.8564 23.3652C13.9133 23.3606 13.9701 23.3555 14.0267 23.35L14.0142 23.3512C15.8677 23.1718 17.5788 22.5058 19.0183 21.4827L19.1074 21.4162L19.0146 21.2006C18.2185 19.4963 16.5267 18.307 14.5686 18.2068L14.3 18.2ZM13 2.60002C7.25625 2.60002 2.60002 7.25625 2.60002 13C2.60002 15.4804 3.46832 17.758 4.91753 19.5453C6.25986 17.1887 8.79437 15.6 11.7 15.6H14.3C17.2057 15.6 19.7403 17.1888 21.0823 19.5451C22.5316 17.758 23.4 15.4804 23.4 13C23.4 7.25625 18.7438 2.60002 13 2.60002ZM13 3.9C15.8719 3.9 18.2 6.22811 18.2 9.09997C18.2 11.8848 16.0108 14.1584 13.2595 14.2937L13 14.3C10.1281 14.3 7.79999 11.9719 7.79999 9.09997C7.79999 6.31513 9.98917 4.04155 12.7404 3.90633L13 3.9ZM13 6.50001C11.564 6.50001 10.4 7.66404 10.4 9.09997C10.4 10.5359 11.564 11.7 13 11.7C14.4359 11.7 15.6 10.5359 15.6 9.09997C15.6 7.66404 14.4359 6.50001 13 6.50001Z" fill="black"/>
</svg>
