<svg width="58" height="58" viewBox="0 0 58 58" fill="none" xmlns="http://www.w3.org/2000/svg">
<g filter="url(#filter0_dd_138_405)">
<rect x="3" y="2" width="52" height="52" rx="26" fill="white"/>
</g>
<path fill-rule="evenodd" clip-rule="evenodd" d="M32.9724 19.3111C33.9181 18.1703 34.5531 16.5807 34.3797 15C33.0197 15.0551 31.3737 15.9056 30.3999 17.0464C29.5251 18.0567 28.7595 19.6733 28.9666 21.2225C30.482 21.3406 32.0312 20.453 32.9747 19.3111H32.9724ZM36.3748 29.344C36.413 33.4301 39.9617 34.7902 40 34.8082C39.9719 34.9038 39.4348 36.7455 38.1311 38.6479C37.0052 40.2927 35.8366 41.9318 33.9947 41.9656C32.1855 41.9982 31.6045 40.8934 29.5352 40.8934C27.4681 40.8934 26.8219 41.9318 25.1083 41.9982C23.3317 42.0657 21.9785 40.2195 20.8414 38.5815C18.5221 35.229 16.7489 29.1089 19.1301 24.9778C20.3111 22.9258 22.4254 21.6264 24.7199 21.5937C26.465 21.56 28.1121 22.7671 29.1783 22.7671C30.2456 22.7671 32.2474 21.3159 34.3516 21.5285C35.2331 21.5656 37.7055 21.884 39.2941 24.2072C39.1657 24.2859 36.3432 25.9284 36.3736 29.344" fill="#332218"/>
<defs>
<filter id="filter0_dd_138_405" x="0" y="0" width="58" height="58" filterUnits="userSpaceOnUse" color-interpolation-filters="sRGB">
<feFlood flood-opacity="0" result="BackgroundImageFix"/>
<feColorMatrix in="SourceAlpha" type="matrix" values="0 0 0 0 0 0 0 0 0 0 0 0 0 0 0 0 0 0 127 0" result="hardAlpha"/>
<feOffset dy="1"/>
<feGaussianBlur stdDeviation="1.5"/>
<feColorMatrix type="matrix" values="0 0 0 0 0.196078 0 0 0 0 0.196078 0 0 0 0 0.278431 0 0 0 0.1 0"/>
<feBlend mode="normal" in2="BackgroundImageFix" result="effect1_dropShadow_138_405"/>
<feColorMatrix in="SourceAlpha" type="matrix" values="0 0 0 0 0 0 0 0 0 0 0 0 0 0 0 0 0 0 127 0" result="hardAlpha"/>
<feOffset/>
<feGaussianBlur stdDeviation="0.5"/>
<feColorMatrix type="matrix" values="0 0 0 0 0.0470588 0 0 0 0 0.101961 0 0 0 0 0.294118 0 0 0 0.2 0"/>
<feBlend mode="normal" in2="effect1_dropShadow_138_405" result="effect2_dropShadow_138_405"/>
<feBlend mode="normal" in="SourceGraphic" in2="effect2_dropShadow_138_405" result="shape"/>
</filter>
</defs>
</svg>
