<svg width="20" height="20" viewBox="0 0 20 20" fill="none" xmlns="http://www.w3.org/2000/svg">
<path fill-rule="evenodd" clip-rule="evenodd" d="M10 0C4.47727 0 0 4.35724 0 9.7319C0 15.1066 4.47727 19.4638 10 19.4638C15.5227 19.4638 20 15.1066 20 9.7319C20 4.35724 15.5227 0 10 0ZM13.37 7.70324C13.5356 7.53638 13.6272 7.3129 13.6252 7.08093C13.6231 6.84896 13.5275 6.62706 13.3589 6.46303C13.1904 6.299 12.9624 6.20595 12.724 6.20393C12.4856 6.20192 12.256 6.29109 12.0845 6.45225L10 8.48091L7.91545 6.45225C7.83159 6.36775 7.73128 6.30035 7.62037 6.25398C7.50946 6.20762 7.39016 6.18321 7.26946 6.18219C7.14875 6.18117 7.02904 6.20356 6.91731 6.24804C6.80559 6.29252 6.70409 6.35822 6.61873 6.44129C6.53338 6.52435 6.46587 6.62314 6.42016 6.73186C6.37445 6.84059 6.35145 6.95709 6.3525 7.07456C6.35355 7.19204 6.37863 7.30813 6.42627 7.41607C6.47392 7.52401 6.54317 7.62163 6.63 7.70324L8.71455 9.7319L6.63 11.7606C6.54317 11.8422 6.47392 11.9398 6.42627 12.0477C6.37863 12.1557 6.35355 12.2718 6.3525 12.3892C6.35145 12.5067 6.37445 12.6232 6.42016 12.7319C6.46587 12.8407 6.53338 12.9395 6.61873 13.0225C6.70409 13.1056 6.80559 13.1713 6.91731 13.2158C7.02904 13.2603 7.14875 13.2826 7.26946 13.2816C7.39016 13.2806 7.50946 13.2562 7.62037 13.2098C7.73128 13.1635 7.83159 13.0961 7.91545 13.0116L10 10.9829L12.0845 13.0116C12.256 13.1727 12.4856 13.2619 12.724 13.2599C12.9624 13.2579 13.1904 13.1648 13.3589 13.0008C13.5275 12.8367 13.6231 12.6148 13.6252 12.3829C13.6272 12.1509 13.5356 11.9274 13.37 11.7606L11.2855 9.7319L13.37 7.70324Z" fill="#9F9F9F"/>
</svg>
